<?xml version="1.0" encoding="utf-8"?>
<!-- Uploaded to: SVG Repo, www.svgrepo.com, Generator: SVG Repo Mixer Tools -->
<svg fill="#000000" height="800px" width="800px" version="1.1" id="Layer_1" xmlns="http://www.w3.org/2000/svg" xmlns:xlink="http://www.w3.org/1999/xlink" 
	 viewBox="0 0 500 500" xml:space="preserve">
<g>
	<circle cx="423.9" cy="431.9" r="15.4"/>
	<path d="M474.2,3.6H25.8c-8.8,0-16,7.2-16,16v460.8c0,8.8,7.2,16,16,16h448.4c8.8,0,16-7.2,16-16V19.6
		C490.2,10.8,483,3.6,474.2,3.6z M145,443.4H45v-21h100V443.4z M173.7,444.5c-7,0-12.6-5.6-12.6-12.6c0-7,5.6-12.6,12.6-12.6
		s12.6,5.6,12.6,12.6C186.3,438.8,180.7,444.5,173.7,444.5z M423.9,461c-16.1,0-29.1-13-29.1-29.1c0-16.1,13-29.1,29.1-29.1
		s29.1,13,29.1,29.1C453,447.9,439.9,461,423.9,461z M47,375.7L45.2,42.6h406l1.7,333.1H47z"/>
	<path d="M338.8,125.6H335v16h11.6v163.3c0,14.8,12.3,26.7,27.2,26.7c14.8,0,27.2-12,27.2-26.7V141.6h11.6v-16h-3.8H338.8z
		 M389.4,275.4h-31.2V141.6h31.2V275.4z"/>
	<path d="M215,125.6h-3.8v16h11.6v163.3c0,14.8,12.3,26.7,27.2,26.7c14.8,0,27.2-12,27.2-26.7V141.6h11.6v-16H285H215z M265.6,185.7
		h-31.2v-44h31.2V185.7z"/>
	<path d="M92.1,125.6h-3.8v16H100v163.3c0,14.8,12.3,26.7,27.2,26.7c14.8,0,27.2-12,27.2-26.7V141.6h11.6v-16h-3.8H92.1z
		 M142.7,228.4h-31.2v-86.8h31.2V228.4z"/>
</g>
</svg>